HIERARCHY
ROOT Hips
{
  OFFSET 196.326 95.9168 97.7182
  CHANNELS 6 Xposition Yposition Zposition Zrotation Xrotation Yrotation
  JOINT LeftUpLeg
  {
    OFFSET 8.64259 1.95398 -2.38835
    CHANNELS 3 Zrotation Xrotation Yrotation
    JOINT LeftLeg
    {
      OFFSET 43.7702 0 0
      CHANNELS 3 Zrotation Xrotation Yrotation
      JOINT LeftFoot
      {
        OFFSET 40.6238 0 0
        CHANNELS 3 Zrotation Xrotation Yrotation
        JOINT LeftToeBase
        {
          OFFSET 12.7242 0 0
          CHANNELS 3 Zrotation Xrotation Yrotation
          End Site
          {
            OFFSET 0 0 0
          }
        }
      }
    }
  }
  JOINT RightUpLeg
  {
    OFFSET -8.2249 1.95398 -2.59336
    CHANNELS 3 Zrotation Xrotation Yrotation
    JOINT RightLeg
    {
      OFFSET 43.5653 0 0
      CHANNELS 3 Zrotation Xrotation Yrotation
      JOINT RightFoot
      {
        OFFSET 40.6238 0 0
        CHANNELS 3 Zrotation Xrotation Yrotation
        JOINT RightToeBase
        {
          OFFSET 12.7242 0 0
          CHANNELS 3 Zrotation Xrotation Yrotation
          End Site
          {
            OFFSET 0 0 0
          }
        }
      }
    }
  }
  JOINT Spine
  {
    OFFSET 0.165834 0.87714 6.61349
    CHANNELS 3 Zrotation Xrotation Yrotation
    JOINT Spine1
    {
      OFFSET 7.38963 1.71661e-005 0
      CHANNELS 3 Zrotation Xrotation Yrotation
      JOINT Spine2
      {
        OFFSET 11.9445 1.14441e-005 0
        CHANNELS 3 Zrotation Xrotation Yrotation
        JOINT Spine3
        {
          OFFSET 14.7254 4.19617e-005 0
          CHANNELS 3 Zrotation Xrotation Yrotation
          JOINT Spine4
          {
            OFFSET 10.9679 0 0
            CHANNELS 3 Zrotation Xrotation Yrotation
            JOINT RightShoulder
            {
              OFFSET 2.46616 -1.6653 3.69651
              CHANNELS 3 Zrotation Xrotation Yrotation
              JOINT RightArm
              {
                OFFSET 13.0012 0 0
                CHANNELS 3 Zrotation Xrotation Yrotation
                JOINT RightForeArm
                {
                  OFFSET 28.7848 1.52588e-005 0
                  CHANNELS 3 Zrotation Xrotation Yrotation
                  JOINT RightHand
                  {
                    OFFSET 26.5688 1.52588e-005 0
                    CHANNELS 3 Zrotation Xrotation Yrotation
                    End Site
                    {
                      OFFSET 0 0 0
                    }
                  }
                }
              }
            }
            JOINT LeftShoulder
            {
              OFFSET 2.38034 -1.29275 -3.75231
              CHANNELS 3 Zrotation Xrotation Yrotation
              JOINT LeftArm
              {
                OFFSET 16.3182 6.10351e-005 0
                CHANNELS 3 Zrotation Xrotation Yrotation
                JOINT LeftForeArm
                {
                  OFFSET 27.0901 0 0
                  CHANNELS 3 Zrotation Xrotation Yrotation
                  JOINT LeftHand
                  {
                    OFFSET 24.5451 1.52588e-005 0
                    CHANNELS 3 Zrotation Xrotation Yrotation
                    End Site
                    {
                      OFFSET 0 0 0
                    }
                  }
                }
              }
            }
            JOINT Neck
            {
              OFFSET 5.0226 -0.0266342 0
              CHANNELS 3 Zrotation Xrotation Yrotation
              JOINT Head
              {
                OFFSET 6.69363 2.86102e-005 0
                CHANNELS 3 Zrotation Xrotation Yrotation
                End Site
                {
                  OFFSET 0 0 0
                }
              }
            }
          }
        }
      }
    }
  }
}
MOTION
Frames:	15
Frame Time:	0.0416667
50.6229 91.8055 -1.19676 -73.3172 38.9417 -103.905 -171.765 14.3284 88.8951 -36.2199 21.6909 -2.34072 55.0953 1.95841 12.7247 66.858 39.6306 -2.48391 178.461 5.79211 90.854 -21.5002 12.5569 -2.08827 85.6184 -7.10381 -2.77102 50.0936 2.97481 13.1808 0.585856 6.64626 -89.5159 13.5765 1.39682 0.788636 1.9061 1.43017 0.726391 -20.6312 1.09523 1.17199 -0.618533 1.09522 1.17199 82.266 -50.4139 -112.377 15.7707 -21.7486 0.827392 -20.2647 3.66957 -88.3255 -30.6397 -1.51286 1.16934 -98.6881 -42.489 63.0803 -31.5413 2.57888 9.73092 6.00461 2.74608 -42.0742 13.5645 0.923465 2.86444 14.5617 -2.05549 3.60314 1.0584 -2.87495 1.18755 
49.6508 91.8899 -0.333641 -73.2697 36.8977 -103.405 -171.016 10.4876 88.7992 -29.4267 21.3347 -2.88838 58.1719 5.27895 14.7889 68.9861 38.8742 -7.79109 178.061 4.89728 90.2535 -19.8281 10.4473 -1.8448 84.8146 -7.04742 -2.78988 52.9338 3.36414 12.3624 0.547815 6.54384 -89.5376 13.7819 1.31132 0.753108 2.11147 1.34317 0.694655 -20.4255 1.02437 1.1124 -0.412845 1.02436 1.1124 82.7124 -49.83 -111.922 18.0454 -19.9238 3.15382 -20.0022 2.35311 -87.7364 -30.7251 -1.37657 0.656935 -99.0486 -42.8667 62.6702 -29.2933 1.7628 6.80168 6.08521 1.53015 -46.5977 16.7581 1.06671 2.48489 14.5499 -2.84992 3.73018 1.26606 -3.68939 1.03454 
48.6386 91.796 0.388809 -73.5054 35.6618 -102.823 -170.204 8.63046 88.8186 -26.4404 22.4797 -3.57131 59.5722 7.43356 17.4579 69.7005 37.627 -11.4769 178.136 4.05146 89.9112 -19.2614 8.76253 -2.30216 84.2289 -7.18768 -2.86338 54.0797 3.78497 13.657 0.526675 6.49682 -89.556 13.8763 1.2607 0.721623 2.20583 1.29122 0.665433 -20.331 0.985541 1.06716 -0.318364 0.985532 1.06715 81.9952 -49.378 -113.161 19.7624 -18.3444 5.47835 -20.3131 2.75182 -86.6691 -30.5282 -1.62676 1.68483 -100.397 -43.2862 60.7549 -27.2019 -0.194086 5.87004 8.90665 2.43407 -53.1867 16.1759 1.05122 2.61899 14.6268 -3.35248 3.64444 0.930407 -4.14152 1.33177 
47.3432 91.4837 1.09798 -74.3923 33.6147 -102.067 -171.014 8.14612 88.0599 -27.0636 22.4008 -3.07841 59.6548 7.68931 17.4017 70.4655 37.8909 -12.2665 178.182 4.05149 89.4092 -21.6294 7.54435 -2.97401 83.8032 -7.09258 -2.84631 58.1244 4.58807 13.9278 0.379963 6.57383 -89.5712 13.7228 0.962047 0.73237 2.05202 0.993322 0.689319 -20.4831 0.697462 0.987642 -0.470498 0.697464 0.987637 82.2316 -49.3311 -112.823 20.8102 -17.3227 6.31874 -19.8002 1.41345 -84.4526 -30.1467 -1.58007 1.56555 -102.247 -43.7081 58.1072 -25.0609 -1.33645 4.77675 10.4999 2.09113 -59.4551 15.5097 0.990347 2.4973 14.4307 -3.8356 3.22218 1.96562 -4.44801 1.78472 
45.8286 91.2009 1.64865 -74.041 33.5752 -101.463 -171.292 7.3949 87.967 -26.7221 23.8205 -2.9634 60.7111 9.79497 19.8158 69.7861 36.3692 -14.1611 178.43 7.83098 89.2128 -29.3582 4.15559 -3.89951 79.8946 -6.05563 -2.63554 63.6605 5.60144 13.6853 0.346155 6.60462 -89.6416 13.6622 0.860494 0.605596 1.99144 0.886335 0.567125 -20.544 0.63872 0.836208 -0.531346 0.638731 0.83621 82.491 -48.8554 -112.608 22.9051 -16.2032 7.48544 -21.4289 -1.07691 -81.0262 -26.3488 -2.01504 4.52498 -102.457 -43.7678 57.8143 -24.5632 -1.40424 3.31718 14.2508 3.01499 -66.2373 16.4166 1.3673 4.42434 14.5002 -3.92035 2.35501 2.94327 -4.26919 1.9991 
44.2476 91.2558 1.94114 -73.2981 35.2758 -100.925 -171.712 5.07462 88.0826 -23.4595 23.6211 -2.70426 60.3862 8.96338 19.8348 70.9608 36.0681 -16.7526 178.977 14.9912 89.094 -41.5024 -0.70208 -4.07079 72.139 -4.62426 -2.33247 67.7435 4.08614 5.74847 0.263498 6.64887 -89.7603 13.5757 0.638939 0.397056 1.90489 0.655811 0.368548 -20.6306 0.490068 0.570731 -0.617957 0.490071 0.570723 83.4453 -49.4624 -110.949 24.1967 -17.4921 8.73475 -22.2812 -3.24641 -77.3361 -24.5871 -1.73 3.89237 -101.595 -43.2967 58.918 -26.0001 -2.54069 3.6664 17.3818 2.08984 -74.5911 17.4082 1.87904 6.9104 15.8712 -2.95398 0.887735 2.43285 -2.8779 2.97468 
42.1054 91.7142 1.57712 -72.0107 35.6623 -100.485 -172.021 3.01231 88.4383 -19.2668 20.8736 -2.33797 59.4266 6.78106 17.6086 69.4209 37.0742 -12.1323 178.255 23.5381 90.2662 -53.2467 2.56271 -3.02048 71.3154 -4.79438 -2.45777 60.705 3.66216 7.38586 -0.0993006 6.74818 -89.9499 13.3774 -0.172753 0.122087 1.70644 -0.167211 0.129566 -20.8286 -0.20145 0.0645231 -0.815974 -0.201461 0.0645151 83.3859 -49.9586 -110.867 25.4923 -17.6498 10.6235 -22.3531 -6.62251 -72.5433 -21.6331 -1.75076 5.10922 -101.646 -42.5363 58.4982 -26.6601 -4.82081 4.09017 17.6191 0.676598 -80.2333 19.5876 2.11989 6.96624 17.9856 -0.986658 0.808226 1.79967 -0.968848 3.01709 
39.9625 92.1666 0.530659 -70.0253 35.1221 -100.757 -172.594 1.53163 88.9202 -14.8079 21.2009 -1.6909 57.6611 5.6344 17.31 64.4013 38.83 0.721615 176.361 32.6247 92.1002 -61.1242 3.32795 -1.5076 68.8627 -4.17315 -2.2258 59.4057 3.43702 7.32445 -0.479565 6.91186 -90.0152 13.0509 -0.959192 0.0873039 1.38031 -0.954436 0.129445 -21.1576 -0.941107 -0.205039 -1.14498 -0.941084 -0.205035 82.6001 -51.0213 -111.665 26.2312 -16.0817 12.8958 -17.4207 -9.31235 -64.9463 -21.0713 -1.51038 3.89713 -102.048 -40.9167 57.125 -25.0597 -6.84353 3.08119 18.6614 0.509547 -83.5402 20.5686 2.27367 7.24701 19.6163 0.239801 -1.24898 2.56297 0.922202 3.70771 
37.9445 91.5178 -0.514291 -68.2102 34.3464 -101.12 -172.822 0.684324 89.1557 -12.9457 20.415 -1.14302 58.0967 6.13578 16.0509 63.5017 37.3511 -0.342494 173.672 42.0458 94.994 -66.9834 1.98098 -0.334141 67.1776 -3.60534 -1.9802 59.8626 3.83903 8.92508 -0.795435 7.15596 -90.0189 12.5642 -1.58917 0.14702 0.894191 -1.58117 0.216833 -21.6485 -1.55987 -0.337502 -1.63591 -1.55986 -0.337502 80.8902 -53.7558 -113.177 24.3936 -15.3049 15.5642 -10.8183 -9.24583 -56.746 -18.8527 -1.21763 2.76602 -101.628 -39.0625 56.8996 -22.6672 -9.48623 1.30097 20.0014 -0.302212 -88.6749 21.7312 2.46785 7.5713 20.189 0.805963 -3.86991 4.59544 2.40688 4.14707 
36.026 89.675 -1.4611 -66.7546 34.5155 -101.891 -172.575 -0.106499 88.5564 -13.1906 19.5434 -1.37085 60.2352 9.31673 18.7478 66.357 35.2912 -10.2359 170.57 50.8719 98.593 -70.3446 0.768734 0.184675 65.5794 -2.9821 -1.66803 60.9706 4.3482 10.4974 -0.966024 7.50285 -89.9943 11.8715 -1.91816 0.217451 0.201942 -1.90675 0.301692 -22.3444 -1.89481 -0.369312 -2.33173 -1.89482 -0.369303 78.8109 -55.2531 -115.559 22.753 -16.1863 20.4132 -8.772 -9.90007 -55.1514 -19.9437 -1.56218 4.43812 -100.221 -37.1963 58.2765 -20.9347 -13.4223 -1.77497 21.2309 -1.53329 -94.9032 20.596 2.44453 8.074 19.9118 0.970025 -5.74812 8.09279 3.41934 5.29685 
33.4324 87.2224 -3.1394 -66.4706 34.3919 -102.568 -172.032 -1.32415 88.1628 -15.7593 19.361 -1.62653 62.6074 11.5556 19.7628 69.7678 36.5774 -13.7043 167.07 56.3202 101.689 -71.6786 -0.231631 0.737272 64.62 -2.39226 -1.33335 65.3215 5.46053 11.8731 -1.18586 7.98236 -89.9992 10.9128 -2.36063 0.223039 -0.756065 -2.34853 0.32677 -23.3079 -2.31849 -0.497142 -3.29524 -2.31847 -0.497141 78.7333 -54.3686 -116.005 24.4762 -16.819 26.9729 -10.1771 -8.24276 -60.4945 -21.7053 -1.75327 4.74959 -97.8318 -35.2151 61.3333 -20.6178 -15.809 -5.35736 24.2208 -1.58336 -98.4402 21.7429 3.08103 10.2918 19.7979 2.0629 -5.25488 11.1933 4.42429 5.02487 
28.7588 85.0987 -6.081 -65.6866 32.0463 -102.197 -171.131 -3.42312 90.2043 -15.9737 25.6324 -1.84136 62.0496 10.313 18.5095 72.7653 39.2141 -13.5044 163.46 56.3981 103.905 -71.2819 2.6953 1.88932 63.6462 -2.19181 -1.25271 56.239 4.44116 15.0763 -1.49234 8.27731 -90.2827 10.3192 -3.10235 -0.293476 -1.34807 -3.11224 -0.156526 -23.9094 -2.87061 -1.21303 -3.89675 -2.87061 -1.21304 80.3554 -52.2186 -114.512 28.5882 -16.0939 33.0166 -9.52245 -5.38293 -65.754 -22.7932 -1.46834 2.69803 -96.6174 -32.9157 62.3705 -22.1137 -15.5661 -4.35242 23.6544 -2.27886 -97.8008 21.4799 3.15852 10.9031 18.8357 2.84732 -5.34804 13.4534 5.51548 6.34381 
22.5946 83.2015 -10.405 -62.6041 30.3863 -104.413 -172.812 -2.80719 90.3009 -18.3123 27.1262 -0.432938 55.6536 1.64807 10.0651 79.0343 45.8533 -11.2906 165.565 52.0697 102.57 -71.4686 6.34668 2.07598 76.5059 -6.11102 -2.8805 53.3422 4.01674 16.0356 -1.64802 8.33662 -90.511 10.1921 -3.51691 -0.716079 -1.47415 -3.545 -0.56042 -24.0397 -3.139 -1.74087 -4.02703 -3.13897 -1.74087 80.9261 -52.3936 -113.621 29.2423 -16.4545 34.8322 -10.4652 -3.87832 -70.44 -23.9624 -1.4949 2.43278 -96.0988 -32.8191 63.2442 -26.3437 -10.2589 -1.56373 17.8728 -0.512069 -89.8513 22.0085 2.07831 5.64475 19.3342 2.98655 -6.28271 14.6194 6.51816 8.91104 
16.8008 82.1302 -14.6226 -58.6022 30.7581 -107.705 -174.072 6.773 89.4319 -34.0067 26.8931 -0.619145 45.696 -6.35101 6.16527 67.516 37.85 -7.04746 169.753 48.7368 101.298 -69.637 13.9908 1.71624 83.9979 -7.60852 -3.04746 56.4722 4.87477 17.1298 -1.30021 8.36366 -90.5943 10.1348 -2.86174 -0.938905 -1.5333 -2.90026 -0.811964 -24.085 -2.44722 -1.75592 -4.07236 -2.44721 -1.75591 79.4143 -53.1118 -115.526 28.3905 -13.5954 32.3176 -10.706 -0.664902 -75.1217 -25.8772 -1.48818 1.78164 -97.859 -36.2601 61.7621 -29.2455 -0.411075 1.00558 6.98649 0.576942 -72.3876 28.6461 1.96106 2.97064 23.2467 2.33721 -4.49503 12.6154 5.36656 9.18977 
10.5497 82.4178 -18.9874 -56.3362 34.1383 -109.043 -171.7 24.167 90.2182 -61.1746 16.0022 -0.833604 46.2626 -5.06206 8.08224 50.5795 22.325 -5.7948 174.197 41.741 100.288 -64.394 12.6576 0.33969 85.1612 -8.5018 -3.3033 58.4945 4.85545 14.8711 -0.529357 8.48757 -90.4489 9.89462 -1.25882 -0.786446 -1.77594 -1.29221 -0.730274 -24.3123 -0.964279 -1.12841 -4.29968 -0.964283 -1.12842 81.3076 -50.1419 -113.897 33.3214 -13.8804 25.7624 -18.7817 -0.295351 -89.3812 -26.3885 -1.7527 3.11349 -99.578 -39.8036 60.5247 -34.4029 4.38385 8.2654 2.1414 -1.67307 -59.6278 35.4364 2.56003 3.35858 26.114 1.41735 -1.3884 10.0227 3.11081 8.28081 
